<svg xmlns="http://www.w3.org/2000/svg" height="638pt" version="1.1" viewBox="0 0 638 638.75037" width="638pt">
<g id="surface1">
<path d="M 637.703125 622.882812 L 411.507812 231.496094 C 409.859375 228.644531 406.984375 226.71875 403.71875 226.289062 C 400.464844 225.886719 397.199219 226.996094 394.863281 229.308594 L 271.101562 353.070312 L 222.515625 305.328125 L 222.515625 215.628906 C 222.515625 212.824219 221.40625 210.136719 219.417969 208.152344 L 185.863281 174.597656 L 210.34375 150.128906 C 214.476562 146 214.476562 139.300781 210.34375 135.175781 L 90.675781 15.496094 C 70.019531 -5.160156 36.53125 -5.167969 15.871094 15.488281 C -4.789062 36.144531 -4.789062 69.632812 15.863281 90.292969 L 135.546875 209.960938 C 139.675781 214.09375 146.371094 214.09375 150.503906 209.960938 L 170.90625 189.554688 L 201.359375 220.007812 L 201.359375 309.773438 C 201.371094 312.589844 202.515625 315.28125 204.539062 317.246094 L 256.164062 367.941406 L 130.414062 493.753906 C 126.289062 497.886719 126.289062 504.589844 130.421875 508.714844 C 131.753906 510.050781 133.421875 511.003906 135.25 511.476562 L 625.902344 638.410156 C 626.769531 638.636719 627.660156 638.75 628.558594 638.75 C 634.394531 638.746094 639.128906 634.003906 639.125 628.160156 C 639.117188 626.308594 638.632812 624.484375 637.703125 622.882812 Z M 143.023438 187.523438 L 30.824219 75.335938 C 18.433594 62.9375 18.433594 42.839844 30.832031 30.449219 C 43.226562 18.050781 63.324219 18.054688 75.71875 30.453125 L 187.910156 142.640625 Z M 158.457031 495.632812 L 400.078125 254.003906 L 606.765625 611.605469 Z M 158.457031 495.632812 " style=" stroke:none;fill-rule:nonzero;fill:rgb(0%,0%,0%);fill-opacity:1;" />
<path d="M 209.917969 476.167969 C 208.457031 481.820312 211.847656 487.597656 217.507812 489.0625 L 538.738281 572.160156 C 539.605469 572.382812 540.496094 572.488281 541.394531 572.488281 C 547.234375 572.484375 551.964844 567.742188 551.960938 561.902344 C 551.953125 557.082031 548.699219 552.878906 544.035156 551.667969 L 222.804688 468.570312 C 217.152344 467.113281 211.378906 470.511719 209.917969 476.167969 Z M 209.917969 476.167969 " style=" stroke:none;fill-rule:nonzero;fill:rgb(0%,0%,0%);fill-opacity:1;" />
</g>
</svg>