<?xml version="1.0" standalone="no"?>
<!DOCTYPE svg PUBLIC "-//W3C//DTD SVG 20010904//EN"
 "http://www.w3.org/TR/2001/REC-SVG-20010904/DTD/svg10.dtd">
<svg version="1.0" xmlns="http://www.w3.org/2000/svg"
 width="494.000000pt" height="494.000000pt" viewBox="0 0 494.000000 494.000000"
 preserveAspectRatio="xMidYMid meet">
<metadata>
Created by potrace 1.11, written by Peter Selinger 2001-2013
</metadata>
<g transform="translate(0.000000,494.000000) scale(0.100000,-0.100000)"
fill="#000000" stroke="none">
<path d="M2494 4707 c-11 -7 -36 -22 -55 -34 -41 -27 -77 -29 -117 -6 -27 16
-31 16 -65 -3 -54 -28 -193 -148 -262 -225 -99 -111 -133 -190 -159 -360 -13
-84 -25 -97 -153 -162 -112 -56 -113 -58 -101 -81 16 -30 35 -43 106 -77 34
-16 62 -30 62 -32 0 -1 -6 -33 -13 -72 -17 -87 -13 -200 7 -249 9 -21 47 -79
86 -130 38 -52 84 -122 102 -157 28 -55 33 -74 32 -134 0 -59 -6 -81 -34 -137
-42 -85 -98 -160 -130 -174 -14 -7 -71 -14 -127 -18 -232 -13 -486 -94 -621
-198 -74 -57 -180 -174 -222 -244 l-35 -58 0 -296 c1 -264 9 -558 20 -710 2
-30 7 -93 10 -140 10 -141 34 -314 55 -397 24 -96 98 -246 146 -295 47 -49 86
-60 218 -61 329 -4 851 96 1270 242 174 60 272 69 381 34 28 -9 111 -47 186
-84 334 -168 668 -257 766 -204 94 51 174 300 198 620 3 44 8 103 10 130 2 28
7 115 10 195 3 80 8 161 10 180 2 19 7 64 10 100 8 90 23 166 45 225 23 65 30
116 35 250 5 137 -13 242 -52 299 -46 66 -169 182 -251 236 -131 86 -369 162
-549 176 -113 8 -171 33 -227 95 -77 86 -93 185 -43 270 15 25 31 69 38 99 13
65 36 105 99 180 55 65 79 121 85 198 17 196 15 189 91 238 71 46 72 69 5 118
-89 65 -136 148 -146 257 -7 73 -38 147 -92 223 -81 114 -339 346 -385 346
-10 0 -30 -7 -44 -16 -31 -21 -83 -13 -126 19 -49 36 -52 37 -74 24z"/>
</g>
</svg>
